<svg id="visual" viewBox="0 0 900 600" width="900" height="600" xmlns="http://www.w3.org/2000/svg" xmlns:xlink="http://www.w3.org/1999/xlink" version="1.1"><path d="M0 109L25 107C50 105 100 101 150 103.2C200 105.3 250 113.7 300 114.7C350 115.7 400 109.3 450 99.2C500 89 550 75 600 70.5C650 66 700 71 750 83C800 95 850 114 875 123.5L900 133L900 0L875 0C850 0 800 0 750 0C700 0 650 0 600 0C550 0 500 0 450 0C400 0 350 0 300 0C250 0 200 0 150 0C100 0 50 0 25 0L0 0Z" fill="#000000" stroke-linecap="round" stroke-linejoin="miter"></path></svg>