<svg xmlns="http://www.w3.org/2000/svg" version="1.1" xmlns:xlink="http://www.w3.org/1999/xlink" xmlns:svgjs="http://svgjs.com/svgjs" width="1440" height="560" preserveAspectRatio="none" viewBox="0 0 1440 560"><g mask="url(&quot;#SvgjsMask1003&quot;)" fill="none"><rect width="1440" height="560" x="0" y="0" fill="rgba(147, 147, 147, 1)"></rect><path d="M 0,372 C 57.6,331.6 172.8,160 288,170 C 403.2,180 460.8,427 576,422 C 691.2,417 748.8,158.6 864,145 C 979.2,131.4 1036.8,338.6 1152,354 C 1267.2,369.4 1382.4,248.4 1440,222L1440 560L0 560z" fill="rgba(255, 0, 0, 1)"></path><path d="M 0,506 C 96,419.8 288,118.8 480,75 C 672,31.2 768,280.2 960,287 C 1152,293.8 1344,144.6 1440,109L1440 560L0 560z" fill="rgba(0, 0, 0, 1)"></path></g><defs><mask id="SvgjsMask1003"><rect width="1440" height="560" fill="#ffffff"></rect></mask></defs></svg>